# xmcd CD database file
#
# Track frame offsets:
#	150
#	24332
#	44027
#
# Disc length: 906 seconds
#
# Revision: 0
# Processed by: cddbd v1.5PL3 Copyright (c) Steve Scherf et al.
# Submitted via: CDex 1.50beta10
#
DISCID=1f038803
DTITLE=鬼束ちひろ - 私とワルツを
DYEAR=2003
DGENRE=JPop
TTITLE0=私とワルツを
TTITLE1=Rebel Luck
TTITLE2=私とワルツを(Inst.)
EXTD=YEAR: 2003
EXTT0=
EXTT1=
EXTT2=
PLAYORDER=
